<?xml version="1.0" encoding="UTF-8"?>
<svg version="1.1" xmlns="http://www.w3.org/2000/svg" width="512" height="512">
<path d="M0 0 C1.31036224 -0.00705963 2.62072449 -0.01411926 3.97079468 -0.02139282 C8.17063978 -0.04088583 12.37042638 -0.04608449 16.5703125 -0.046875 C17.28666367 -0.04716957 18.00301483 -0.04746414 18.74107361 -0.04776764 C40.19018709 -0.04919217 61.42112812 0.11361517 82.6953125 3.203125 C83.76060181 3.35584869 83.76060181 3.35584869 84.84741211 3.51165771 C110.60308688 7.22393049 136.3810766 11.66175855 160.6953125 21.203125 C161.54158203 21.52651855 162.38785156 21.84991211 163.25976562 22.18310547 C180.2848792 28.70899336 196.95212399 35.95743682 210.6953125 48.203125 C211.93474609 49.22986328 211.93474609 49.22986328 213.19921875 50.27734375 C219.76442116 55.8602716 224.92023342 62.04863417 229.6953125 69.203125 C230.08686523 69.78465332 230.47841797 70.36618164 230.88183594 70.96533203 C263.92430776 121.00830205 272.70504578 192.37545735 272.8984375 251.06640625 C272.90126488 251.75155996 272.90409225 252.43671368 272.90700531 253.14262962 C272.92187321 256.78576389 272.9311744 260.42885999 272.93554688 264.07202148 C272.93987995 267.00053724 272.95358601 269.92874977 272.9765625 272.85717773 C273.28470015 313.00714264 269.07173802 352.31327231 258.6953125 391.203125 C258.45699707 392.10240723 258.21868164 393.00168945 257.97314453 393.92822266 C248.3866978 429.47768847 229.80946463 458.69746719 198.3515625 478.28515625 C166.31318692 496.5773369 126.80071355 503.41539781 90.6953125 508.390625 C89.58285156 508.54563477 88.47039062 508.70064453 87.32421875 508.86035156 C64.65841771 511.81256572 42.03588128 512.55627994 19.2121582 512.51879883 C16.1716425 512.51418266 13.13152839 512.52105666 10.09106445 512.53930664 C-17.76695742 512.70457435 -45.35862916 511.1937435 -72.8671875 506.515625 C-73.61687805 506.39129089 -74.3665686 506.26695679 -75.13897705 506.13885498 C-110.70257841 500.20186443 -150.15518267 491.49878025 -179.3046875 469.203125 C-179.8296582 468.80544922 -180.35462891 468.40777344 -180.89550781 467.99804688 C-219.79878981 438.14256977 -230.10731339 382.21016948 -236.41015625 336.53515625 C-236.71312553 334.09173527 -237.01093506 331.64767117 -237.3046875 329.203125 C-237.39295807 328.54235962 -237.48122864 327.88159424 -237.57217407 327.20080566 C-239.92793142 309.31345835 -239.64519763 291.2927536 -239.62036133 273.28759766 C-239.61574841 269.66572591 -239.62259364 266.04419144 -239.64086914 262.42236328 C-239.78485455 233.58528014 -238.51742453 205.35943786 -233.4921875 176.890625 C-233.36396606 176.14762146 -233.23574463 175.40461792 -233.1036377 174.63909912 C-225.25306983 129.22069769 -212.7328718 71.88323709 -172.6796875 43.47265625 C-162.10747933 36.26630661 -151.10488444 30.1532687 -139.3046875 25.203125 C-138.63614746 24.92259277 -137.96760742 24.64206055 -137.27880859 24.35302734 C-94.66707811 6.85979062 -45.84082953 0.1656628 0 0 Z " fill="#1D56D3" transform="translate(239.3046875,-0.203125)"/>
<path d="M0 0 C0.71027344 0.61488281 1.42054688 1.22976562 2.15234375 1.86328125 C14.97755755 13.72342946 24.01051755 32.16383381 25.17223358 49.58244705 C25.46318202 57.16818151 25.42047849 64.75767503 25.3984375 72.34765625 C25.40046197 74.81139715 25.4033765 77.27513747 25.40713501 79.73887634 C25.41153995 84.88367459 25.40518581 90.02831581 25.39111328 95.1730957 C25.37401374 101.74186469 25.3838795 108.31026608 25.40183067 114.87902164 C25.41271029 119.96047192 25.40920315 125.04183613 25.4014473 130.12328911 C25.39945731 132.54440798 25.40186195 134.96553486 25.40888596 137.38664436 C25.4165704 140.77888603 25.40479883 144.17054544 25.38818359 147.56274414 C25.39425629 148.54645996 25.40032898 149.53017578 25.40658569 150.54370117 C25.32060788 160.0983436 23.01266378 169.02578931 19.5 177.875 C19.0978125 178.90367187 18.695625 179.93234375 18.28125 180.9921875 C17 184 17 184 15.28125 187.1328125 C13.81934651 189.77337879 13.81934651 189.77337879 14.18139648 191.92675781 C15.2449536 194.62038354 16.72939877 196.03601099 18.81640625 198.0390625 C19.58017578 198.78414062 20.34394531 199.52921875 21.13085938 200.296875 C21.93330078 201.06515625 22.73574219 201.8334375 23.5625 202.625 C25.15151541 204.15431619 26.73639034 205.68795022 28.31640625 207.2265625 C29.37516968 208.24097412 29.37516968 208.24097412 30.45532227 209.27587891 C32 211 32 211 32 213 C30.3623728 214.45402342 28.66265804 215.83848678 26.9375 217.1875 C22.93260217 220.38834546 19.22881464 223.64495994 15.66796875 227.32421875 C13.26894366 229.73448049 10.70660777 231.93572075 8.1328125 234.15625 C5.73567047 236.22850464 3.36665177 238.33051222 1 240.4375 C0.236875 241.11683594 -0.52625 241.79617188 -1.3125 242.49609375 C-1.869375 242.99238281 -2.42625 243.48867188 -3 244 C-10.69371026 237.61585745 -17.6663403 230.73373185 -24 223 C-24.95777344 223.38671875 -25.91554688 223.7734375 -26.90234375 224.171875 C-34.16862849 227.03873785 -41.38501972 229.53955632 -49 231.3125 C-49.68054443 231.47137695 -50.36108887 231.63025391 -51.06225586 231.79394531 C-83.11446547 238.91405046 -118.77748857 234.04878598 -146.921875 217.03125 C-151.55958307 213.97083351 -155.84915544 210.6919927 -160 207 C-160.75796875 206.33613281 -161.5159375 205.67226563 -162.296875 204.98828125 C-176.45158263 191.78535568 -184.87869337 173.43466266 -186.19124985 154.19690704 C-186.27007773 151.39429131 -186.2931736 148.59765557 -186.29052734 145.79394531 C-186.29724457 144.74500092 -186.30396179 143.69605652 -186.31088257 142.61532593 C-186.32970577 139.18620927 -186.33377873 135.75728994 -186.3359375 132.328125 C-186.34237602 129.91737796 -186.34910514 127.50663169 -186.35610962 125.09588623 C-186.36804305 120.05609324 -186.37179447 115.0163686 -186.37060547 109.9765625 C-186.37040245 103.5571966 -186.39770587 97.13827419 -186.43214989 90.71901321 C-186.45451838 85.74292027 -186.45843997 80.76693242 -186.45738602 75.79079437 C-186.45972696 73.42599713 -186.4684642 71.06119631 -186.48405075 68.69644928 C-186.5806393 52.53040804 -186.09603556 37.21499906 -178.25 22.625 C-177.90638428 21.96491943 -177.56276855 21.30483887 -177.20874023 20.62475586 C-174.1100923 14.85580873 -170.42972344 9.82856827 -166 5 C-165.34773438 4.25621094 -164.69546875 3.51242188 -164.0234375 2.74609375 C-123.6904211 -40.68365238 -42.52882032 -37.72403756 0 0 Z " fill="#F8F8F8" transform="translate(333,148)"/>
<path d="M0 0 C4.92764225 4.15299107 9.25733707 9.82648816 10.4375 16.25 C10.52697412 18.98061266 10.56375525 21.68485969 10.55102539 24.41503906 C10.55117142 25.2349231 10.55131744 26.05480713 10.5514679 26.89953613 C10.55077218 29.60492616 10.54299572 32.31024702 10.53515625 35.015625 C10.53329086 36.89320844 10.53186753 38.77079237 10.53086853 40.64837646 C10.52705289 45.58688707 10.51723071 50.52536821 10.50616455 55.46386719 C10.49592996 60.50455324 10.49136652 65.54524405 10.48632812 70.5859375 C10.47560761 80.47397127 10.4585426 90.36198318 10.4375 100.25 C9.3296646 99.30893615 8.22305197 98.36643273 7.11694336 97.42333984 C6.50056503 96.89864105 5.88418671 96.37394226 5.24913025 95.83334351 C2.71958097 93.62254722 0.35868864 91.26599944 -2 88.875 C-2.86496094 88.00101562 -3.72992188 87.12703125 -4.62109375 86.2265625 C-5.26175781 85.57429688 -5.90242188 84.92203125 -6.5625 84.25 C-15.76746736 88.3624044 -23.40434117 96.84295292 -30.74609375 103.65234375 C-34.29137685 106.92226506 -37.90920802 110.10172191 -41.5625 113.25 C-40.10504576 116.61335594 -38.25132146 118.79534005 -35.6484375 121.359375 C-34.88789063 122.11347656 -34.12734375 122.86757813 -33.34375 123.64453125 C-32.5496875 124.42183594 -31.755625 125.19914063 -30.9375 126 C-30.13570312 126.79277344 -29.33390625 127.58554687 -28.5078125 128.40234375 C-26.53047154 130.35614493 -24.54861091 132.30512103 -22.5625 134.25 C-25.82699048 137.67805936 -27.8814715 138.1178573 -32.59375 138.48828125 C-44.10253309 138.73452774 -53.6325017 136.80537516 -62.58984375 129.24609375 C-70.03257018 121.71493889 -72.86377876 114.29906244 -72.85302734 103.92089844 C-72.85974457 102.98852859 -72.86646179 102.05615875 -72.87338257 101.09553528 C-72.89236148 98.01676077 -72.89628698 94.93820435 -72.8984375 91.859375 C-72.90486638 89.71331697 -72.91159481 87.56725981 -72.91860962 85.42120361 C-72.93058276 80.92222055 -72.93429049 76.42331427 -72.93310547 71.92431641 C-72.93290248 66.17327681 -72.96018356 60.42273251 -72.99464989 54.67181015 C-73.01694434 50.23813641 -73.02094219 45.80458128 -73.01988602 41.37085724 C-73.02223894 39.2514704 -73.031045 37.13208014 -73.04655075 35.01274872 C-73.06625825 32.04037857 -73.06035336 29.06906877 -73.04833984 26.09667969 C-73.05957886 25.22987076 -73.07081787 24.36306183 -73.08239746 23.46998596 C-73.00681273 16.06989579 -71.00525148 10.0685594 -66.125 4.4375 C-65.279375 3.715625 -64.43375 2.99375 -63.5625 2.25 C-62.799375 1.569375 -62.03625 0.88875 -61.25 0.1875 C-44.20715907 -12.09919927 -17.33598077 -11.60052545 0 0 Z " fill="#1F57D3" transform="translate(283.5625,186.75)"/>
</svg>
